<?xml version="1.0" encoding="utf-8"?>
<!-- Generator: Adobe Adobe Illustrator 24.2.0, SVG Export Plug-In . SVG Version: 6.00 Build 0)  -->
<svg version="1.1" id="Layer_1" xmlns="http://www.w3.org/2000/svg" xmlns:xlink="http://www.w3.org/1999/xlink" x="0px" y="0px"
	 width="520px" height="520px" viewBox="0 0 520 520" style="enable-background:new 0 0 520 520;" xml:space="preserve">
<style type="text/css">
	.st0{fill:#010101;}
</style>
<g>
	<path class="st0" d="M468.01,252.1c8.15,5.76,12.32,11.97,15.54,13.29c7.34,3.01-22.84-25.13-20.96-27.8
		c1.38-1.96,15.59,3.44,17.69,2.29c1.04-0.57-10.87-5.41-11.83-6.11c-0.96-0.7-15.7-4.36-16.88-4.5c-4.01-0.47-7.49-0.28-9.91-1.06
		c-4.82-1.56-7.86-5.49-11.49-9.03c-17.94-17.54-36.83-34.21-57.57-48.34c-2.13-1.45-4.4-2.91-6.84-3.61
		c-2.27-5.55-5.38-10.78-8.75-15.76c-15.58-23.03-32.97-47.33-56.57-58.83c-3.8-1.85-8.05,0.63-10.23,4.35
		c-0.29-0.14-0.57-0.27-0.86-0.39c-5.77-2.48-12.08-3.35-18.3-4.2c-1.3-0.18-2.52-0.33-3.68-0.46c0,0-0.01,0-0.01,0
		c-0.36-2.99-0.72-5.97-1.09-8.96c5.77-2.78,13.61-8.31,17.3-18.65c2.96-8.3,3.85-17.19,4.19-25.99c0.28-7.44,0.12-15.22-3.35-21.8
		c-3.47-6.59-18.65-9.48-25.43-9.46c-6.61,0.01-21.22,2.87-24.69,9.46c-3.47,6.58-3.63,14.36-3.35,21.8
		c0.35,8.8,1.23,17.69,4.19,25.99c3.32,9.33,10.03,14.73,15.54,17.74c-0.05,3.3-0.11,6.6-0.16,9.91c0,0,0,0,0,0
		c-1.09,0.11-2.22,0.26-3.42,0.42c-6.16,0.84-12.41,1.7-18.13,4.13c-2.25-3.46-6.31-5.66-9.95-3.89
		c-23.6,11.5-40.99,35.8-56.57,58.83c-3.37,4.97-6.48,10.2-8.74,15.75c-2.45,0.71-4.71,2.17-6.85,3.62
		c-20.74,14.13-39.63,30.8-57.57,48.34c-4.63,4.53-9.67,12.27-12.37,12.81c-2.31,0.46-5.89,0.89-8.53,1.2
		c-1.18,0.14-15.92,3.8-16.88,4.5c-0.96,0.7-12.87,5.54-11.83,6.11c2.1,1.15,16.31-4.25,17.69-2.29c1.89,2.67-28.3,30.8-20.96,27.8
		c3.21-1.32,7.39-7.53,15.54-13.29c-2.05,6.91-20.28,25.56-17.1,25.45c3.53-0.13,16.15-17.46,23.93-21.48
		c-8.8,13.11-20.77,30.86-15.64,26.2c7.59-6.89,10.28-13.5,19.16-18.99c1.06,3-4.18,5.88-10.19,16.72
		c-4.3,7.75,13.96-12.68,13.96-12.68c3.58-4.85,7.33-8.87,10.91-13.72c2.7-3.66,6.14-6.91,7.75-11.17
		c0.79-2.09,8.59-12.17,12.56-15.08c21.37-15.65,42.29-31.9,62.73-48.75c1.73-1.42,3.08-2.89,3.73-4.54
		c18.24-16.54,35.62-34.02,52.05-52.37c0.53,2.16,1.18,4.31,1.8,6.4c5.09,17.11,9,34.58,11.67,52.23
		c0.57,3.76,1.14,10.23,2.56,15.17c-3.01,13.51-11.03,26.27-12.72,39.63c-2.48,10.33-4.04,21.45-4.73,32.58
		c-1.21,19.69,0.23,39.41,3.01,58.97c-6.33,40.93,6.07,82.64,13.79,123.68c-5.41,11.39-8.04,24.82-7.61,36.1
		c0.12,2.96,0.41,6.02,1.88,8.58c1.19,2.08,3.06,3.66,4.88,5.21c3.15,2.66,6.3,5.31,9.44,7.97c0.54,0.45,1.2,0.94,1.88,0.75
		c0.93-0.26,1.09-1.49,1.07-2.46c-0.19-7.21-0.37-14.43-0.56-21.64c-0.12-4.55-0.23-9.19,1.07-13.55c0.82-2.76,1.68-8.86,2.09-11.71
		c0.37-2.58-0.3-6.18-1.76-11.53c-0.13-0.49-0.47-0.81-0.92-1.01c1.97-14.19,3.55-25.98,3-42.07c-0.32-9.46-0.29-56.17-4.55-64.72
		c6.84-16.52,8.83-35.04,10.64-53.01c1.16-11.56,2.32-23.13,3.01-34.72c0,0,0,0,0,0c2.64,0,4.29-0.04,4.29-0.04s0.15,0.39,0.34,0.01
		c0.61,0.02,2.01,0.05,3.94,0.06c0,0,0,0,0,0c0.7,11.58,1.85,23.15,3.01,34.69c1.81,17.96,3.79,36.46,10.62,52.97c0,0,0,0,0,0
		c-4.28,8.45-4.25,55.29-4.57,64.76c-0.54,15.72,0.96,27.34,2.87,41.11c-0.5,0.2-0.87,0.53-1.01,1.06
		c-1.46,5.35-2.13,8.95-1.76,11.53c0.41,2.84,1.28,8.95,2.09,11.71c1.29,4.36,1.19,9,1.07,13.55c-0.19,7.21-0.37,14.43-0.56,21.64
		c-0.03,0.97,0.14,2.2,1.07,2.46c0.68,0.19,1.34-0.3,1.88-0.75c3.15-2.66,6.3-5.31,9.44-7.97c1.83-1.54,3.69-3.13,4.88-5.21
		c1.47-2.57,1.76-5.63,1.88-8.58c0.43-11.08-2.1-24.24-7.32-35.5c7.72-40.9,20.03-82.45,13.75-123.24
		c2.8-19.59,4.24-39.36,3.03-59.08c-0.69-11.25-2.29-22.51-4.81-32.94c0,0,0,0,0,0c-1.9-13.21-9.69-25.84-12.64-39.22
		c1.44-4.95,2-11.45,2.57-15.22c2.68-17.65,6.58-35.12,11.68-52.23c0.73-2.47,1.49-5,2.08-7.55c16.72,18.76,34.44,36.63,53.07,53.52
		c0.65,1.65,2,3.12,3.73,4.54c20.44,16.85,41.36,33.1,62.73,48.75c4.05,2.96,12.74,10.32,13.06,11.16
		c1.62,4.25,5.05,7.51,7.75,11.17c3.58,4.85,7.33,8.87,10.91,13.72c0,0,18.25,20.43,13.96,12.68
		c-6.01-10.84-11.25-13.72-10.19-16.72c8.88,5.49,11.58,12.09,19.16,18.99c5.13,4.66-6.83-13.09-15.64-26.2
		c7.78,4.01,20.4,21.35,23.93,21.48C488.29,277.67,470.06,259.01,468.01,252.1z"/>
</g>
</svg>
